HIERARCHY
ROOT hip
{
	OFFSET 0.000000 0.000000 0.000000 
	CHANNELS 6 Xposition Yposition Zposition Zrotation Xrotation Yrotation
	JOINT abdomen
	{
		OFFSET 0.000000 3.402643 0.000000 
		CHANNELS 3 Zrotation Xrotation Yrotation
		JOINT chest
		{
			OFFSET 0.000000 8.438565 -0.680529 
			CHANNELS 3 Zrotation Xrotation Yrotation
			JOINT neck
			{
				OFFSET 0.000000 10.207942 -0.272212 
				CHANNELS 3 Zrotation Xrotation Yrotation
				JOINT head
				{
					OFFSET 0.000000 3.130431 0.000000 
					CHANNELS 3 Zrotation Xrotation Yrotation
					End Site
					{
						OFFSET 0.000000 3.130435 0.000000 
					}
				}
			}
			JOINT lCollar
			{
				OFFSET 3.470700 6.669187 -0.816635 
				CHANNELS 3 Zrotation Xrotation Yrotation
				JOINT lShldr
				{
					OFFSET 3.198488 0.000000 0.000000 
					CHANNELS 3 Zrotation Xrotation Yrotation
					JOINT lForeArm
					{
						OFFSET 10.139888 0.000000 0.000000 
						CHANNELS 3 Zrotation Xrotation Yrotation
						JOINT lHand
						{
							OFFSET 8.370511 0.000000 0.000000 
							CHANNELS 3 Zrotation Xrotation Yrotation
							End Site
							{
								OFFSET 4.083176 0.000000 0.000000 
							}
						}
					}
				}
			}
			JOINT rCollar
			{
				OFFSET -3.470700 6.669187 -0.816635 
				CHANNELS 3 Zrotation Xrotation Yrotation
				JOINT rShldr
				{
					OFFSET -3.198488 0.000000 0.000000 
					CHANNELS 3 Zrotation Xrotation Yrotation
					JOINT rForeArm
					{
						OFFSET -10.139888 0.000000 0.000000 
						CHANNELS 3 Zrotation Xrotation Yrotation
						JOINT rHand
						{
							OFFSET -8.370511 0.000000 0.000000 
							CHANNELS 3 Zrotation Xrotation Yrotation
							End Site
							{
								OFFSET -4.083176 0.000000 0.000000 
							}
						}
					}
				}
			}
		}
	}
	JOINT lThigh
	{
		OFFSET 5.308129 -1.633274 1.361059 
		CHANNELS 3 Zrotation Xrotation Yrotation
		JOINT lShin
		{
			OFFSET -2.041588 -20.007561 0.000000 
			CHANNELS 3 Zrotation Xrotation Yrotation
			JOINT lFoot
			{
				OFFSET 0.000000 -19.190928 -1.224953 
				CHANNELS 3 Zrotation Xrotation Yrotation
				End Site
				{
					OFFSET 0.000000 -2.449906 4.627600 
				}
			}
		}
	}
	JOINT rThigh
	{
		OFFSET -5.308129 -1.633274 1.361059 
		CHANNELS 3 Zrotation Xrotation Yrotation
		JOINT rShin
		{
			OFFSET 2.041588 -20.007561 0.000000 
			CHANNELS 3 Zrotation Xrotation Yrotation
			JOINT rFoot
			{
				OFFSET 0.000000 -19.190928 -1.224953 
				CHANNELS 3 Zrotation Xrotation Yrotation
				End Site
				{
					OFFSET 0.000000 -2.449906 4.627600 
				}
			}
		}
	}
}
MOTION
Frames: 14
Frame Time: 0.033333
0.000000 48.013634 0.291666 -0.000010 -0.000010 -0.000000 -1.613879 -3.221380 -1.028215 -1.233013 -3.680790 -0.196566 -0.303508 -4.091741 0.124776 -0.850570 -2.724311 -0.118556 4.122088 1.004686 7.607349 -63.432766 -3.315444 -42.764400 -65.182541 32.836613 -90.019730 -46.005962 -15.704531 -9.851824 0.194356 0.294420 8.203167 48.720570 10.460117 39.611740 46.571033 20.200605 117.231369 45.861675 -16.260412 20.109705 3.976752 -7.525789 0.648267 -3.419936 15.780288 0.048129 -0.881299 -8.600804 0.924226 -4.381215 -7.522904 -0.504117 3.367254 15.720440 -0.303262 0.955368 -8.614699 -1.422826 
0.000000 48.013634 0.291666 -0.000010 -0.000010 -0.000000 -0.610238 -7.167562 -0.476638 -0.334697 -7.236207 -0.042159 -1.406739 -6.921762 -0.081912 -0.559419 -5.712618 -0.055781 7.630327 1.706529 7.985320 -65.434769 -1.539063 -44.258408 -65.129852 41.985756 -88.892548 -59.932819 -13.224807 -13.195988 -4.376566 0.007093 5.540541 50.460346 11.919674 41.209866 40.331581 30.078463 115.762917 51.858078 -13.750489 19.105461 3.976752 -7.525789 0.648267 -3.419936 15.780288 0.048129 -0.881299 -8.600804 0.924226 -4.381215 -7.522904 -0.504117 3.367254 15.720440 -0.303262 0.955368 -8.614699 -1.422826 
0.000000 48.013634 0.291666 -0.000010 -0.000010 -0.000000 -0.610238 -7.167562 -0.476638 -0.334697 -7.236207 -0.042159 -1.406739 -6.921762 -0.081912 -0.559419 -5.712618 -0.055781 7.630327 1.706529 7.985320 -65.434769 -1.539063 -44.258408 -65.129852 41.985756 -88.892548 -59.932819 -13.224807 -13.195988 -4.376566 0.007093 5.540541 50.460346 11.919674 41.209866 40.331581 30.078463 115.762917 51.858078 -13.750489 19.105461 3.976752 -7.525789 0.648267 -3.419936 15.780288 0.048129 -0.881299 -8.600804 0.924226 -4.381215 -7.522904 -0.504117 3.367254 15.720440 -0.303262 0.955368 -8.614699 -1.422826 
0.000000 48.013634 0.291666 -0.000010 -0.000010 -0.000000 -0.346483 -9.433425 -0.320520 -0.187842 -8.964797 -0.000006 -1.856012 -8.433142 -0.087053 -1.134737 -8.230831 -0.191768 10.652657 2.811291 8.379285 -62.267712 -4.453303 -43.611824 -64.780037 38.940502 -92.069168 -62.617779 -12.402287 -15.274360 -6.172535 -0.095451 5.592510 46.409283 8.601117 39.931824 41.966240 27.352404 118.930969 53.051395 -13.321187 21.872721 3.976752 -7.525789 0.648267 -3.419936 15.780288 0.048129 -0.881299 -8.600804 0.924226 -4.381215 -7.522904 -0.504117 3.367254 15.720440 -0.303262 0.955368 -8.614699 -1.422826 
0.000000 48.013634 0.291666 -0.000010 -0.000010 -0.000000 -0.610238 -7.167562 -0.476638 -0.334697 -7.236207 -0.042159 -1.406739 -6.921762 -0.081912 -0.559419 -5.712618 -0.055781 7.630327 1.706529 7.985320 -61.275879 -5.235188 -41.077141 -64.403572 38.145329 -92.381813 -65.535782 -11.621865 -17.050303 -4.376566 0.007093 5.540541 46.980732 8.986544 37.869106 42.571415 26.434727 120.741158 55.696655 -12.240389 25.085695 3.976752 -7.525789 0.648267 -3.419936 15.780288 0.048129 -0.881299 -8.600804 0.924226 -4.381215 -7.522904 -0.504117 3.367254 15.720440 -0.303262 0.955368 -8.614699 -1.422826 
0.000000 48.013634 0.291666 -0.000010 -0.000010 -0.000000 -2.096476 4.557507 -1.015338 -1.211607 1.903878 -0.116197 0.966952 1.025243 -0.358935 2.167055 7.514215 -0.136673 -7.934373 -2.985251 5.497708 -66.764076 0.097539 -36.386780 -64.516708 41.741596 -85.729034 -65.535782 -11.621865 -17.050303 5.263894 0.554817 6.009607 58.239124 18.065918 35.959209 41.375404 28.454306 117.594627 57.889500 -11.256402 26.090948 3.976752 -7.525789 0.648267 -3.419936 15.780288 0.048129 -0.881299 -8.600804 0.924226 -4.381215 -7.522904 -0.504117 3.367254 15.720440 -0.303262 0.955368 -8.614699 -1.422826 
0.000000 48.013634 0.291666 -0.000010 -0.000010 -0.000000 -3.020268 11.556621 -1.035017 -1.675119 7.662782 -0.040245 2.464684 6.000336 -0.853088 3.977514 17.694328 -0.888420 -17.763086 -4.943326 3.020345 -70.141724 3.300360 -34.322666 -64.899467 44.715115 -81.408623 -65.535782 -11.621865 -17.050303 11.127982 1.050159 7.013468 64.379295 23.048756 35.549805 40.667690 29.898453 115.074928 59.449345 -10.521122 25.146400 3.976752 -7.525789 0.648267 -3.419936 15.780288 0.048129 -0.881299 -8.600804 0.924226 -4.381215 -7.522904 -0.504117 3.367254 15.720440 -0.303262 0.955368 -8.614699 -1.422826 
0.000000 48.013634 0.291666 -0.000010 -0.000010 -0.000000 -3.065588 12.043796 -1.030199 -1.618914 8.395137 -0.037289 2.644462 6.594592 -0.918699 4.227292 21.752863 -1.119220 -18.855589 -4.822846 1.890269 -69.757042 2.937222 -34.543980 -65.077705 46.185722 -80.825600 -65.535782 -11.621865 -17.050303 11.626353 1.206320 7.976559 63.683495 22.497734 35.582214 40.584320 30.163525 114.274864 60.485668 -9.966942 23.256729 3.976752 -7.525789 0.648267 -3.419936 15.780288 0.048129 -0.881299 -8.600804 0.924226 -4.381215 -7.522904 -0.504117 3.367254 15.720440 -0.303262 0.955368 -8.614699 -1.422826 
0.000000 48.013634 0.291666 -0.000010 -0.000010 -0.000000 -2.608784 8.789853 -1.046393 -1.354779 5.877275 -0.086087 1.978519 4.411432 -0.649955 3.331535 20.749128 -0.692638 -14.426244 -4.046840 2.520133 -67.868652 1.145494 -35.691807 -65.081459 46.724136 -82.006264 -65.535782 -11.621865 -17.050303 8.960831 0.940718 7.986729 60.274807 19.713299 35.794418 40.763344 29.854254 114.389023 61.102104 -9.618009 21.410316 3.976752 -7.525789 0.648267 -3.419936 15.780288 0.048129 -0.881299 -8.600804 0.924226 -4.381215 -7.522904 -0.504117 3.367254 15.720440 -0.303262 0.955368 -8.614699 -1.422826 
0.000000 48.013634 0.291666 -0.000010 -0.000010 -0.000000 -2.096476 4.557507 -1.015338 -1.211607 1.903878 -0.116197 0.966952 1.025243 -0.358935 1.978069 15.694229 -0.154413 -7.934373 -2.985251 5.497708 -66.764076 0.097539 -36.386780 -65.057472 46.808495 -82.867661 -65.535782 -11.621865 -17.050303 5.263894 0.554817 6.009607 58.239124 18.065918 35.959209 40.884975 29.611389 114.616638 61.308220 -9.498343 20.567175 3.976752 -7.525789 0.648267 -3.419936 15.780288 0.048129 -0.881299 -8.600804 0.924226 -4.381215 -7.522904 -0.504117 3.367254 15.720440 -0.303262 0.955368 -8.614699 -1.422826 
0.000000 48.013634 0.291666 -0.000010 -0.000010 -0.000000 -1.846514 1.698336 -0.951114 -1.377623 -1.786594 -0.140615 0.087947 -2.041015 -0.231243 0.838575 8.163201 -0.001751 -2.601862 -1.650392 10.616056 -66.764076 0.097539 -36.386780 -65.057472 46.808495 -82.867661 -65.535782 -11.621865 -17.050303 2.444488 0.548166 1.853830 58.239124 18.065918 35.959209 40.884975 29.611389 114.616638 61.308220 -9.498343 20.567175 3.976752 -7.525789 0.648267 -3.419936 15.780288 0.048129 -0.881299 -8.600804 0.924226 -4.381215 -7.522904 -0.504117 3.367254 15.720440 -0.303262 0.955368 -8.614699 -1.422826 
0.000000 48.013634 0.291666 -0.000010 -0.000010 -0.000000 -1.826343 0.790611 -0.932136 -1.624445 -3.680167 -0.172932 -0.342463 -3.574158 -0.216663 0.322467 2.021451 -0.138328 -0.310057 -0.715080 14.434234 -66.764076 0.097539 -36.386780 -65.057472 46.808495 -82.867661 -65.535782 -11.621865 -17.050303 1.357923 0.766323 -1.464579 58.239124 18.065918 35.959209 40.884975 29.611389 114.616638 61.308220 -9.498343 20.567175 3.976752 -7.525789 0.648267 -3.419936 15.780288 0.048129 -0.881299 -8.600804 0.924226 -4.381215 -7.522904 -0.504117 3.367254 15.720440 -0.303262 0.955368 -8.614699 -1.422826 
0.000000 48.013634 0.291666 -0.000010 -0.000010 -0.000000 -1.944545 2.000800 -0.967239 -1.593063 -2.284272 -0.151403 -0.009775 -2.402347 -0.234787 0.820665 1.679515 -0.150867 -2.267982 -1.566726 12.794627 -66.764076 0.097539 -36.386780 -65.057472 46.808495 -82.867661 -65.535782 -11.621865 -17.050303 2.482324 0.637342 -0.165868 58.239124 18.065918 35.959209 40.884975 29.611389 114.616638 61.308220 -9.498343 20.567175 3.976752 -7.525789 0.648267 -3.419936 15.780288 0.048129 -0.881299 -8.600804 0.924226 -4.381215 -7.522904 -0.504117 3.367254 15.720440 -0.303262 0.955368 -8.614699 -1.422826 
0.000000 48.013634 0.291666 -0.000010 -0.000010 -0.000000 -0.000000 -0.000002 -0.000000 -0.000000 -0.000005 -0.000000 -0.000000 -0.000003 -0.000000 -0.000000 0.000002 -0.000000 -5.687433 -0.268816 2.011537 -72.947189 15.738561 10.363276 -8.608585 3.601588 -19.084564 5.932219 -0.060075 -3.367899 5.677637 -0.269440 -2.021283 72.939827 15.736412 -10.373324 8.572981 3.593884 19.072248 -6.002429 -0.034737 3.336431 3.915927 -7.532557 0.670311 -3.378853 15.725637 -0.055018 -0.833543 -8.538354 0.965134 -4.381215 -7.522904 -0.504117 3.315358 15.670636 -0.276072 0.979896 -8.612240 -1.459141 
